<svg width="480" height="360" viewBox="0 0 480 360" xmlns="http://www.w3.org/2000/svg">
  <rect width="480" height="360" rx="28" fill="#F3E9E3"/>
  <path
    d="M124 206c-10-58 34-112 92-125 39-9 82 6 113 39 16 17 27 38 32 60 7 32-4 70-31 92-31 25-74 33-126 27-46-6-72-28-80-93z"
    fill="#EACFC2"
  />
  <path
    d="M178 151c15-33 63-47 99-30 17 8 31 21 40 38"
    fill="none"
    stroke="#D9B9AA"
    stroke-width="14"
    stroke-linecap="round"
  />
  <circle cx="188" cy="170" r="10" fill="#E2B9A6"/>
  <circle cx="226" cy="208" r="8" fill="#E2B9A6"/>
  <circle cx="266" cy="174" r="9" fill="#E2B9A6"/>
</svg>
